<svg xmlns="http://www.w3.org/2000/svg" version="1.1" xmlnsXlink="http://www.w3.org/1999/xlink" xmlnsSvgjs="http://svgjs.com/svgjs" width="1400" height="560" preserveAspectRatio="none" viewBox="0 0 1400 560"><g mask="url(&quot;#SvgjsMask1256&quot;)" fill="none"><rect width="1400" height="560" x="0" y="0" fill="url(#SvgjsLinearGradient1257)"></rect><path d="M 0,145 C 56,131.4 168,58 280,77 C 392,96 448,245.2 560,240 C 672,234.8 728,69.8 840,51 C 952,32.2 1008,133.8 1120,146 C 1232,158.2 1344,118.8 1400,112L1400 560L0 560z" fill="#184a7e"></path><path d="M 0,343 C 93.4,363.2 280.2,453.8 467,444 C 653.8,434.2 747.4,282.4 934,294 C 1120.6,305.6 1306.8,460.4 1400,502L1400 560L0 560z" fill="#2264ab"></path></g><defs><mask id="SvgjsMask1256"><rect width="1400" height="560" fill="#ffffff"></rect></mask><linearGradient x1="15%" y1="-37.5%" x2="85%" y2="137.5%" gradientUnits="userSpaceOnUse" id="SvgjsLinearGradient1257"><stop stop-color="#0e2a47" offset="0"></stop><stop stop-color="rgba(0, 57, 158, 1)" offset="1"></stop></linearGradient></defs></svg>